HIERARCHY
ROOT Hips
{
	OFFSET 0.00000 0.00000 0.00000
	CHANNELS 6 Xposition Yposition Zposition Zrotation Yrotation Xrotation 
	JOINT LHipJoint
	{
		OFFSET 0 0 0
		CHANNELS 3 Zrotation Yrotation Xrotation
		JOINT LeftUpLeg
		{
			OFFSET 1.73240 -1.89999 0.57994
			CHANNELS 3 Zrotation Yrotation Xrotation
			JOINT LeftLeg
			{
				OFFSET 2.43106 -6.67930 0.00000
				CHANNELS 3 Zrotation Yrotation Xrotation
				JOINT LeftFoot
				{
					OFFSET 2.78854 -7.66147 0.00000
					CHANNELS 3 Zrotation Yrotation Xrotation
					JOINT LeftToeBase
					{
						OFFSET 0.17314 -0.47571 2.01064
						CHANNELS 3 Zrotation Yrotation Xrotation
						End Site
						{
							OFFSET 0.00000 -0.00000 1.04147
						}
					}
				}
			}
		}
	}
	JOINT RHipJoint
	{
		OFFSET 0 0 0
		CHANNELS 3 Zrotation Yrotation Xrotation
		JOINT RightUpLeg
		{
			OFFSET -1.57078 -1.89998 0.57994
			CHANNELS 3 Zrotation Yrotation Xrotation
			JOINT RightLeg
			{
				OFFSET -2.50166 -6.87326 0.00000
				CHANNELS 3 Zrotation Yrotation Xrotation
				JOINT RightFoot
				{
					OFFSET -2.77304 -7.61886 0.00000
					CHANNELS 3 Zrotation Yrotation Xrotation
					JOINT RightToeBase
					{
						OFFSET -0.23513 -0.64602 2.11039
						CHANNELS 3 Zrotation Yrotation Xrotation
						End Site
						{
							OFFSET -0.00000 -0.00000 1.10597
						}
					}
				}
			}
		}
	}
	JOINT LowerBack
	{
		OFFSET 0 0 0
		CHANNELS 3 Zrotation Yrotation Xrotation
		JOINT Spine
		{
			OFFSET -0.00908 2.00015 -0.35323
			CHANNELS 3 Zrotation Yrotation Xrotation
			JOINT Spine1
			{
				OFFSET 0.05647 2.02258 0.04270
				CHANNELS 3 Zrotation Yrotation Xrotation
				JOINT Neck
				{
					OFFSET 0 0 0
					CHANNELS 3 Zrotation Yrotation Xrotation
					JOINT Neck1
					{
						OFFSET -0.02074 1.73711 0.13117
						CHANNELS 3 Zrotation Yrotation Xrotation
						JOINT Head
						{
							OFFSET -0.02359 1.73615 -0.24320
							CHANNELS 3 Zrotation Yrotation Xrotation
							End Site
							{
								OFFSET -0.00579 1.75982 -0.09688
							}
						}
					}
				}
				JOINT LeftShoulder
				{
					OFFSET 0 0 0
					CHANNELS 3 Zrotation Yrotation Xrotation
					JOINT LeftArm
					{
						OFFSET 3.20537 1.11432 -0.27680
						CHANNELS 3 Zrotation Yrotation Xrotation
						JOINT LeftForeArm
						{
							OFFSET 5.05923 -0.00000 -0.00000
							CHANNELS 3 Zrotation Yrotation Xrotation
							JOINT LeftHand
							{
								OFFSET 3.51996 -0.00000 0.00000
								CHANNELS 3 Zrotation Yrotation Xrotation
								JOINT LeftFingerBase
								{
									OFFSET 0 0 0
									CHANNELS 3 Zrotation Yrotation Xrotation
									JOINT LeftHandIndex1
									{
										OFFSET 0.65238 -0.00000 0.00000
										CHANNELS 3 Zrotation Yrotation Xrotation
										End Site
										{
											OFFSET 0.52596 -0.00000 0.00000
										}
									}
								}
								JOINT LThumb
								{
									OFFSET 0 0 0
									CHANNELS 3 Zrotation Yrotation Xrotation
									End Site
									{
										OFFSET 0.53399 -0.00000 0.53399
									}
								}
							}
						}
					}
				}
				JOINT RightShoulder
				{
					OFFSET 0 0 0
					CHANNELS 3 Zrotation Yrotation Xrotation
					JOINT RightArm
					{
						OFFSET -2.96983 1.42602 -0.37449
						CHANNELS 3 Zrotation Yrotation Xrotation
						JOINT RightForeArm
						{
							OFFSET -5.40867 -0.00000 0.00000
							CHANNELS 3 Zrotation Yrotation Xrotation
							JOINT RightHand
							{
								OFFSET -3.12964 -0.00000 0.00000
								CHANNELS 3 Zrotation Yrotation Xrotation
								JOINT RightFingerBase
								{
									OFFSET 0 0 0
									CHANNELS 3 Zrotation Yrotation Xrotation
									JOINT RightHandIndex1
									{
										OFFSET -0.83271 -0.00000 0.00000
										CHANNELS 3 Zrotation Yrotation Xrotation
										End Site
										{
											OFFSET -0.67135 -0.00000 0.00000
										}
									}
								}
								JOINT RThumb
								{
									OFFSET 0 0 0
									CHANNELS 3 Zrotation Yrotation Xrotation
									End Site
									{
										OFFSET -0.68160 -0.00000 0.68160
									}
								}
							}
						}
					}
				}
			}
		}
	}
}
MOTION
Frames: 10
Frame Time: 0.0465116
0.00 0.00 0.00 8.9802 -19.8284 -3.5311 0.0000 0.0000 0.0000 -36.2041 0.0201 -1.1146 4.0840 12.2714 36.6988 -0.4405 -12.2768 0.4345 0.4633 -4.3659 -12.1083 0.0000 0.0000 0.0000 20.4199 7.1140 -34.4253 -2.9011 -10.5332 30.7211 0.1667 -8.2011 1.1549 -3.7234 -11.7830 34.9686 -0.4778 -1.0199 30.6924 9.3433 -0.5382 5.8667 10.5593 -0.2595 -9.6603 2.0340 3.3646 -12.2963 -8.7395 4.8914 4.8065 -2.6715 2.0173 3.7119 0.0000 -0.0000 0.0000 -85.3603 20.1828 16.4580 26.4452 -37.6450 -9.1582 -0.0000 0.0000 -13.4513 11.0022 49.1018 8.3602 -7.1250 0.0000 -0.0000 -54.1039 73.7485 -39.5275 0.0000 -0.0000 0.0000 68.4245 -7.5250 -30.2574 -133.7591 51.3621 -96.7960 0.0000 -0.0000 -37.6940 0.2114 -1.6906 -0.0062 7.1250 -0.0000 -0.0000 21.0767 -31.1785 7.5825
0.00 0.00 0.00 11.3200 -18.4538 -9.3767 0.0000 0.0000 0.0000 -36.5507 -2.9857 -2.5790 3.8435 11.9492 35.5524 0.2953 -12.4057 -12.2274 0.3523 -3.8136 -10.5528 0.0000 0.0000 0.0000 13.6666 5.9335 -36.6121 -5.5442 -13.9716 43.1239 -0.2019 -1.0729 -8.9485 -0.7524 5.5403 -15.4563 -3.7782 1.1860 32.1519 5.8897 0.7993 6.7894 8.0594 0.3875 -9.3402 0.6252 1.9850 -13.0852 -6.5987 3.2044 6.7122 -1.8999 1.2030 4.2628 0.0000 0.0000 0.0000 -83.4289 11.5860 19.0777 35.1475 -44.9172 -14.9174 -0.0000 0.0000 -11.2326 16.0878 49.4930 12.3681 -7.1250 0.0000 -0.0000 -51.3946 75.8916 -39.3476 0.0000 0.0000 0.0000 53.1352 15.4800 -17.9415 -123.5932 55.2739 -88.6309 0.0000 -0.0000 -21.0017 13.7999 0.0756 0.0186 7.1250 -0.0000 -0.0000 30.3340 -28.8603 13.7781
0.00 0.00 0.00 7.2869 -21.0150 -8.1238 0.0000 0.0000 0.0000 -30.1276 -8.9697 -8.1526 3.7423 11.8094 35.0610 0.5895 -1.6203 -14.0375 0.2871 -3.4460 -9.5231 0.0000 0.0000 0.0000 11.8234 8.9380 -34.4035 -12.9759 -18.7735 69.0507 -0.3169 -1.0904 -11.0858 -0.0858 1.8892 -5.1995 -0.0705 2.8289 32.5781 4.9226 4.0301 6.1359 3.7589 1.8275 -10.3807 -1.2890 1.6418 -12.5984 -4.3155 2.7961 5.6525 -1.0158 1.1219 4.1981 -0.0000 -0.0000 0.0000 -86.6685 9.7856 23.2365 42.1577 -49.2976 -20.0600 -0.0000 0.0000 -9.2832 15.1419 45.4234 10.9103 -7.1250 0.0000 -0.0000 -40.2037 73.0436 -27.9020 -0.0000 -0.0000 0.0000 46.9758 28.6281 12.2350 -94.9010 59.9090 -64.2431 0.0000 0.0000 10.2191 12.8541 4.0830 0.9308 7.1250 -0.0000 -0.0000 28.6520 -25.3387 15.5798
0.00 0.00 0.00 3.6338 -19.6108 -5.4837 0.0000 0.0000 0.0000 -23.7799 -11.0304 -14.0811 3.9511 12.0951 36.0692 0.4060 -0.0087 -12.0358 0.1095 -2.1334 -5.8744 0.0000 0.0000 0.0000 13.5076 8.3026 -29.2070 -14.7887 -19.3360 74.5993 -0.1323 -5.1779 -10.6612 -0.0795 -1.8183 5.0038 2.1720 3.2785 32.1644 5.0114 5.4160 5.4662 2.1232 2.4106 -10.8622 -1.5382 0.6368 -13.2182 -3.1581 1.4072 5.7218 -0.6836 0.4837 4.3056 0.0000 0.0000 0.0000 -86.0161 9.7063 27.7013 44.7321 -50.6365 -22.0314 -0.0000 0.0000 -9.8468 14.1564 44.7551 10.0701 -7.1250 0.0000 -0.0000 -39.6218 72.2239 -26.8029 0.0000 0.0000 0.0000 48.4099 32.5582 26.5209 -64.8542 57.4705 -38.4080 0.0000 0.0000 21.3504 5.9663 5.9342 0.6190 7.1250 -0.0000 -0.0000 23.6704 -23.9388 13.1465
0.00 0.00 0.00 -2.5315 -3.6111 -2.1346 0.0000 0.0000 0.0000 -4.9299 -25.7584 -29.7924 2.4519 9.7499 28.1705 0.1214 3.1999 6.2469 0.0700 -1.7068 -4.6959 0.0000 0.0000 0.0000 26.4564 9.5716 -2.0595 -6.8900 -15.2386 48.4572 -1.7342 -6.8587 -28.1470 -1.0226 6.4332 -18.0466 6.9226 5.9219 34.2633 8.0518 10.6167 8.4742 0.9590 4.8306 -8.2765 -6.5585 -6.7285 -16.4507 4.0406 -7.8745 -0.9711 1.8817 -3.7664 3.0522 0.0000 -0.0000 0.0000 -88.1572 6.1701 32.7757 54.9463 -54.8055 -30.1721 -0.0000 0.0000 -8.4462 21.8345 46.2199 16.1343 -7.1250 0.0000 -0.0000 -35.1217 76.1268 -26.3216 0.0000 -0.0000 0.0000 60.3799 29.5966 -6.2442 -10.1531 16.9788 -1.5194 0.0000 0.0000 40.8926 -6.5658 2.6428 -0.3041 7.1250 -0.0000 -0.0000 15.2327 -27.2158 6.8055
0.00 0.00 0.00 1.3910 1.5016 -1.5517 0.0000 0.0000 0.0000 -9.8066 -24.6823 -24.3836 1.1004 6.6656 18.7283 0.1430 2.7761 -8.7262 0.1120 -2.1582 -5.9431 0.0000 0.0000 0.0000 21.9583 5.1645 -11.0635 -6.4383 -14.8400 46.7163 -1.9857 -6.6887 -29.7015 -0.0273 1.0672 -2.9337 3.6540 4.5552 34.1024 7.2807 7.7947 8.1991 2.8346 3.5639 -8.8370 -6.0223 -6.1363 -13.6876 3.7547 -7.3629 -0.6978 1.7962 -3.5554 2.5671 -0.0000 -0.0000 0.0000 -91.8599 15.4492 21.1814 47.4158 -51.8985 -24.1252 -0.0000 0.0000 -12.6330 22.1000 45.8318 16.2389 -7.1250 0.0000 -0.0000 -33.6731 75.9487 -25.0669 -0.0000 -0.0000 0.0000 70.8543 18.5101 -11.9264 -21.8046 32.7555 -6.4798 0.0000 0.0000 2.4848 -19.7480 3.9416 -1.4136 7.1250 -0.0000 -0.0000 5.2022 -25.7887 2.4303
0.00 0.00 0.00 2.4459 3.4111 -3.5394 0.0000 0.0000 0.0000 -17.2953 -7.7715 -11.3220 7.5601 15.7860 50.9622 -0.0971 -7.0172 -2.0596 1.7431 -8.3092 -23.6573 0.0000 0.0000 0.0000 19.3701 1.4008 -19.9913 -4.0758 -12.2605 36.6600 -0.2240 -7.1306 -14.2514 -0.7789 -5.6346 15.7279 1.1550 0.9318 27.5560 5.3729 2.1165 5.8295 4.6352 1.0383 -8.9062 -4.1001 -3.7311 -14.5757 0.7710 -4.2861 7.3660 0.5445 -2.1774 4.6730 0.0000 0.0000 0.0000 -95.0535 22.4909 -1.9254 17.9644 -28.1115 -4.5324 -0.0000 0.0000 -8.5482 13.1053 47.3858 9.7219 -7.1250 0.0000 -0.0000 -47.3480 73.5699 -33.8765 0.0000 0.0000 0.0000 79.7306 -4.8045 -24.4716 -54.8706 54.7805 -30.1103 0.0000 -0.0000 -45.5833 -2.0629 -5.5746 0.2005 7.1250 -0.0000 -0.0000 20.2168 -34.9230 5.2798
0.00 0.00 0.00 1.7726 2.1442 -5.0552 0.0000 0.0000 0.0000 -18.1984 -1.0209 -1.6584 6.9665 15.3036 48.7476 -0.5760 -14.4777 11.4962 1.7727 -8.3756 -23.8610 0.0000 0.0000 0.0000 20.0269 1.9094 -21.7473 -3.6557 -11.6875 34.6354 0.0538 -7.9479 -10.1289 -1.1533 -6.8185 19.1788 0.6386 0.3759 25.7156 5.1072 1.1950 5.0094 4.9393 0.6181 -8.8278 -3.7747 -2.7078 -13.8162 -0.9640 -2.7992 9.0946 0.0745 -1.5726 5.0273 0.0000 -0.0000 0.0000 -94.2970 23.9436 -2.3928 20.5998 -31.3582 -5.8403 -0.0000 0.0000 -11.3248 13.0835 50.1677 10.1189 -7.1250 0.0000 -0.0000 -55.9505 75.0589 -42.3996 0.0000 -0.0000 0.0000 77.8207 -7.7378 -25.9832 -71.9791 58.7366 -44.4596 0.0000 -0.0000 -54.2006 11.3480 -3.5500 -0.7119 7.1250 -0.0000 -0.0000 29.7334 -32.2526 10.5680
0.00 0.00 0.00 2.3211 2.5227 -6.0472 0.0000 0.0000 0.0000 -20.6154 0.6634 4.6761 5.7554 14.1871 43.9921 0.1708 -13.4566 21.0239 0.4595 -4.3485 -12.0593 0.0000 0.0000 0.0000 18.8611 1.5295 -23.6375 -3.4821 -11.4373 33.7693 0.1644 -7.9717 -6.6360 -1.1043 -6.6771 18.7623 -0.4686 0.0511 24.8966 4.6857 0.4454 4.3212 5.3524 0.3009 -9.1157 -3.2380 -2.3552 -12.7882 -1.5188 -2.3794 10.4926 -0.1472 -1.4019 5.2769 -0.0000 0.0000 0.0000 -93.0848 24.0406 0.0535 23.3000 -34.4152 -7.3071 -0.0000 0.0000 -12.5099 16.8311 51.9036 13.3910 -7.1250 0.0000 -0.0000 -60.1952 77.2582 -48.3312 -0.0000 0.0000 0.0000 75.9136 -9.4362 -25.8415 -93.8618 59.9436 -63.3438 0.0000 -0.0000 -54.4712 13.0757 -2.8693 -0.6661 7.1250 -0.0000 -0.0000 30.7270 -31.5229 11.6736
0.00 0.00 0.00 3.7783 6.1737 -5.4938 0.0000 0.0000 0.0000 -30.1390 -4.7558 9.8903 2.1994 9.2696 26.6425 -0.0431 -14.2753 -9.5109 0.0544 -1.5049 -4.1393 0.0000 0.0000 0.0000 9.8058 9.7279 -24.9619 -1.5338 -7.8187 22.1649 0.4186 -12.4079 -9.8729 -0.0304 1.1249 -3.0927 -1.8911 -1.2634 22.9888 2.8525 -1.8065 3.3269 4.7794 -0.7416 -9.0121 -1.2178 -2.1531 -12.8233 -1.4141 -2.4676 12.7151 -0.4666 -1.3675 5.9543 -0.0000 -0.0000 0.0000 -86.0964 14.2950 16.6778 38.3916 -47.0876 -17.2518 -0.0000 0.0000 -11.4356 21.3868 46.8954 15.9569 -7.1250 0.0000 -0.0000 -37.7071 76.4235 -28.5825 -0.0000 -0.0000 0.0000 61.5530 -6.7961 -2.3071 -143.7637 45.6750 -104.3087 0.0000 -0.0000 -0.9842 12.6498 2.6638 0.5976 7.1250 -0.0000 -0.0000 28.8720 -26.6252 14.7091
